<svg xmlns="http://www.w3.org/2000/svg" xmlns:xlink="http://www.w3.org/1999/xlink" width="720" height="720" viewBox="0 0 720 720"><defs><clipPath id="b"><rect width="720" height="720"/></clipPath></defs><g id="a" clip-path="url(#b)"><circle cx="360" cy="360" r="360" fill="#fff"/><path d="M13925.171,10605.973a181.314,181.314,0,0,1-36.275-3.657,179.029,179.029,0,0,1-64.363-27.084,180.519,180.519,0,0,1-65.215-79.2,179.022,179.022,0,0,1-10.488-33.787,181.718,181.718,0,0,1,.008-72.586,179.042,179.042,0,0,1,27.136-64.416,181.53,181.53,0,0,1,22.02-26.651l254.557,254.558a180.29,180.29,0,0,1-57.248,38.646,179.1,179.1,0,0,1-33.818,10.51A181.284,181.284,0,0,1,13925.171,10605.973Z" transform="translate(-13565.172 -10065.973)" fill="#452897"/><circle cx="45" cy="45" r="45" transform="translate(315 315)"/><path d="M14164.265,10354l-45.783,0a225.892,225.892,0,0,0,4.52-45c0-124.063-100.935-225-225-225a225.744,225.744,0,0,0-45,4.521v-45.79a272.74,272.74,0,0,1,99.414,1.751,268.6,268.6,0,0,1,96.548,40.628,270.766,270.766,0,0,1,97.82,118.792,268.687,268.687,0,0,1,15.734,50.683,272.655,272.655,0,0,1,1.749,99.41v0Z" transform="translate(-13538 -9949)"/><path d="M13982.328,10264h-47.041a134.308,134.308,0,0,0,7.711-45c0-74.438-60.56-135-135-135a134.278,134.278,0,0,0-45,7.71v-47.036c2.9-.746,5.832-1.424,8.724-2.017a180.249,180.249,0,0,1,202.131,106.278,179.267,179.267,0,0,1,10.488,33.788,181.843,181.843,0,0,1,0,72.554c-.595,2.9-1.273,5.838-2.017,8.722Z" transform="translate(-13448 -9859)"/><path d="M235.75,416.088l-31.894-31.894A223.464,223.464,0,0,0,270,225C270,100.934,169.067,0,45,0A223.466,223.466,0,0,0-114.193,66.145l-31.894-31.894.17-.17a272.018,272.018,0,0,1,39.959-32.97A270.031,270.031,0,0,1-60.094-23.783,268.646,268.646,0,0,1-9.412-39.515a272.625,272.625,0,0,1,108.828,0A268.646,268.646,0,0,1,150.1-23.783,270.032,270.032,0,0,1,195.962,1.111,271.508,271.508,0,0,1,268.89,74.039,269.962,269.962,0,0,1,293.783,119.9a268.587,268.587,0,0,1,15.733,50.682,272.625,272.625,0,0,1,0,108.828,268.589,268.589,0,0,1-15.733,50.682,269.989,269.989,0,0,1-24.893,45.864,272.072,272.072,0,0,1-32.97,39.959l-.128.128-.042.042h0Z" transform="translate(405 585) rotate(180)"/></g></svg>